<svg width="26" height="26" viewBox="0 0 26 26" fill="none" xmlns="http://www.w3.org/2000/svg">
<path d="M10.4586 1H15.3509V4.91169C15.8628 5.06067 16.3538 5.25848 16.8187 5.49974L19.593 2.75711L23.0524 6.21654L20.3098 8.99087C20.551 9.45573 20.7489 9.94676 20.8978 10.4586H24.8095V15.3509L20.7954 15.3509C20.6421 15.8051 20.4499 16.2413 20.2228 16.6556L23.0524 19.593L19.593 23.0524L16.6556 20.066C16.2394 20.2702 15.8033 20.44 15.3509 20.5717V24.8095H10.4586V20.4692C10.0636 20.3359 9.68226 20.1732 9.31703 19.9836L6.21654 23.0524L2.75711 19.593L5.82589 16.4925C5.63635 16.1273 5.47362 15.7459 5.34031 15.3509L1 15.3509V10.4586H5.23784C5.36605 10.0182 5.53041 9.59312 5.72749 9.18691L2.75711 6.21654L6.21654 2.75711L9.08462 5.62519C9.51952 5.38124 9.97906 5.17601 10.4586 5.01415V1Z" fill="#DBDADE"/>
<path d="M16.2838 12.1855C16.6613 14.0722 15.4412 15.865 13.5585 16.19C11.6758 16.5149 9.84352 15.2488 9.46597 13.3621C9.08841 11.4754 10.3086 9.68249 12.1912 9.35757C14.0739 9.03266 15.9062 10.2987 16.2838 12.1855Z" fill="#DBDADE"/>
<path d="M10.4586 1V0C9.90629 0 9.45858 0.447715 9.45858 1L10.4586 1ZM15.3509 1H16.3509C16.3509 0.447715 15.9032 0 15.3509 0V1ZM15.3509 24.8095V25.8095C15.9032 25.8095 16.3509 25.3618 16.3509 24.8095H15.3509ZM10.4586 24.8095H9.45858C9.45858 25.3618 9.90629 25.8095 10.4586 25.8095V24.8095ZM24.8095 10.4586H25.8095C25.8095 9.90629 25.3618 9.45858 24.8095 9.45858L24.8095 10.4586ZM24.8095 15.3509V16.3509C25.0747 16.3509 25.3291 16.2456 25.5166 16.0581C25.7042 15.8705 25.8095 15.6162 25.8095 15.3509H24.8095ZM1 15.3509H0C0 15.9032 0.447715 16.3509 1 16.3509L1 15.3509ZM1 10.4586L1 9.45858C0.734784 9.45858 0.48043 9.56393 0.292893 9.75147C0.105357 9.93901 0 10.1934 0 10.4586H1ZM19.593 2.75711L20.3001 2.05C19.9112 1.66107 19.2811 1.65926 18.89 2.04595L19.593 2.75711ZM23.0524 6.21654L23.7636 6.91957C24.1503 6.5284 24.1485 5.89837 23.7595 5.50943L23.0524 6.21654ZM6.21654 23.0524L5.50943 23.7595C5.89854 24.1486 6.5289 24.1502 6.92 23.7631L6.21654 23.0524ZM2.75711 19.593L2.04638 18.8895C1.65928 19.2806 1.6609 19.911 2.05 20.3001L2.75711 19.593ZM23.0524 19.593L23.7595 20.3001C24.1449 19.9147 24.1507 19.2917 23.7726 18.8992L23.0524 19.593ZM19.593 23.0524L18.8801 23.7536C19.067 23.9437 19.3222 24.0513 19.5888 24.0524C19.8555 24.0535 20.1115 23.9481 20.3001 23.7595L19.593 23.0524ZM2.75711 6.21654L2.05001 5.50943C1.86247 5.69697 1.75711 5.95132 1.75711 6.21654C1.75711 6.48175 1.86247 6.73611 2.05001 6.92364L2.75711 6.21654ZM6.21654 2.75711L6.92365 2.05C6.53312 1.65948 5.89996 1.65948 5.50943 2.05L6.21654 2.75711ZM20.7954 15.3509V14.3509H20.0775L19.8479 15.0311L20.7954 15.3509ZM20.2228 16.6556L19.3459 16.1749L18.9924 16.8197L19.5026 17.3493L20.2228 16.6556ZM16.6556 20.066L17.3685 19.3647L16.8626 18.8504L16.215 19.1682L16.6556 20.066ZM15.3509 20.5717L15.0715 19.6115L14.3509 19.8213V20.5717H15.3509ZM10.4586 20.4692H11.4586V19.7513L10.7784 19.5217L10.4586 20.4692ZM9.31703 19.9836L9.77767 19.096L9.13121 18.7605L8.61356 19.2729L9.31703 19.9836ZM5.82589 16.4925L6.53663 17.196L7.04898 16.6783L6.71348 16.0319L5.82589 16.4925ZM5.34031 15.3509L6.28779 15.0311L6.0582 14.3509L5.34031 14.3509L5.34031 15.3509ZM5.23784 10.4586V11.4586H5.98826L6.19799 10.7381L5.23784 10.4586ZM5.72749 9.18691L6.62719 9.62342L6.93787 8.98308L6.43459 8.4798L5.72749 9.18691ZM9.08462 5.62519L8.37751 6.33229L8.91315 6.86794L9.57383 6.49735L9.08462 5.62519ZM10.4586 5.01415L10.7784 5.96163L11.4586 5.73205V5.01415H10.4586ZM15.3509 4.91169H14.3509V5.6621L15.0715 5.87184L15.3509 4.91169ZM16.8187 5.49974L16.358 6.38732L17.0041 6.72261L17.5217 6.2109L16.8187 5.49974ZM20.3098 8.99087L19.5986 8.28784L19.0869 8.80547L19.4222 9.45151L20.3098 8.99087ZM20.8978 10.4586L19.9377 10.7381L20.1474 11.4586L20.8978 11.4586L20.8978 10.4586ZM10.4586 1V2H15.3509V1V0H10.4586V1ZM15.3509 24.8095V23.8095H10.4586V24.8095V25.8095H15.3509V24.8095ZM24.8095 10.4586H23.8095V15.3509H24.8095H25.8095V10.4586H24.8095ZM1 15.3509H2V10.4586H1H0V15.3509H1ZM19.593 2.75711L18.8859 3.46422L22.3453 6.92364L23.0524 6.21654L23.7595 5.50943L20.3001 2.05L19.593 2.75711ZM6.21654 23.0524L6.92364 22.3453L3.46422 18.8859L2.75711 19.593L2.05 20.3001L5.50943 23.7595L6.21654 23.0524ZM23.0524 19.593L22.3453 18.8859L18.8859 22.3453L19.593 23.0524L20.3001 23.7595L23.7595 20.3001L23.0524 19.593ZM2.75711 6.21654L3.46422 6.92364L6.92365 3.46422L6.21654 2.75711L5.50943 2.05L2.05001 5.50943L2.75711 6.21654ZM20.7954 15.3509L19.8479 15.0311C19.7136 15.4291 19.5451 15.8115 19.3459 16.1749L20.2228 16.6556L21.0997 17.1363C21.3547 16.671 21.5706 16.181 21.7429 15.6708L20.7954 15.3509ZM16.6556 20.066L16.215 19.1682C15.8501 19.3473 15.4679 19.4961 15.0715 19.6115L15.3509 20.5717L15.6304 21.5318C16.1387 21.3839 16.6287 21.1931 17.0961 20.9637L16.6556 20.066ZM10.4586 20.4692L10.7784 19.5217C10.4323 19.4049 10.098 19.2623 9.77767 19.096L9.31703 19.9836L8.85638 20.8712C9.26655 21.0841 9.695 21.2669 10.1388 21.4167L10.4586 20.4692ZM5.82589 16.4925L6.71348 16.0319C6.54726 15.7116 6.40461 15.3772 6.28779 15.0311L5.34031 15.3509L4.39283 15.6708C4.54262 16.1145 4.72544 16.543 4.93831 16.9531L5.82589 16.4925ZM5.23784 10.4586L6.19799 10.7381C6.31034 10.3521 6.45439 9.97958 6.62719 9.62342L5.72749 9.18691L4.82779 8.7504C4.60642 9.20666 4.42176 9.68418 4.2777 10.1791L5.23784 10.4586ZM9.08462 5.62519L9.57383 6.49735C9.9553 6.28338 10.3582 6.10347 10.7784 5.96163L10.4586 5.01415L10.1388 4.06667C9.59995 4.24854 9.08374 4.4791 8.5954 4.75302L9.08462 5.62519ZM15.3509 4.91169L15.0715 5.87184C15.52 6.00239 15.9504 6.17576 16.358 6.38732L16.8187 5.49974L17.2793 4.61215C16.7572 4.34121 16.2056 4.11896 15.6304 3.95154L15.3509 4.91169ZM20.3098 8.99087L19.4222 9.45151C19.6338 9.85916 19.8071 10.2896 19.9377 10.7381L20.8978 10.4586L21.858 10.1791C21.6906 9.60395 21.4683 9.0523 21.1974 8.53023L20.3098 8.99087ZM10.4586 5.01415H11.4586V1H10.4586H9.45858V5.01415H10.4586ZM15.3509 1H14.3509V4.91169H15.3509H16.3509V1H15.3509ZM6.21654 2.75711L5.50943 3.46422L8.37751 6.33229L9.08462 5.62519L9.79172 4.91808L6.92365 2.05L6.21654 2.75711ZM5.72749 9.18691L6.43459 8.4798L3.46422 5.50943L2.75711 6.21654L2.05001 6.92364L5.02038 9.89402L5.72749 9.18691ZM16.8187 5.49974L17.5217 6.2109L20.296 3.46827L19.593 2.75711L18.89 2.04595L16.1156 4.78858L16.8187 5.49974ZM23.0524 6.21654L22.3413 5.51351L19.5986 8.28784L20.3098 8.99087L21.0209 9.6939L23.7636 6.91957L23.0524 6.21654ZM20.8978 10.4586L20.8978 11.4586H24.8095V10.4586L24.8095 9.45858H20.8978V10.4586ZM24.8095 15.3509L24.8095 14.3509L20.7954 14.3509V15.3509V16.3509L24.8095 16.3509V15.3509ZM20.2228 16.6556L19.5026 17.3493L22.3322 20.2868L23.0524 19.593L23.7726 18.8992L20.943 15.9618L20.2228 16.6556ZM19.593 23.0524L20.3059 22.3512L17.3685 19.3647L16.6556 20.066L15.9426 20.7672L18.8801 23.7536L19.593 23.0524ZM15.3509 20.5717H14.3509V24.8095H15.3509H16.3509V20.5717H15.3509ZM10.4586 24.8095H11.4586V20.4692H10.4586H9.45858V24.8095H10.4586ZM9.31703 19.9836L8.61356 19.2729L5.51307 22.3417L6.21654 23.0524L6.92 23.7631L10.0205 20.6944L9.31703 19.9836ZM2.75711 19.593L3.46784 20.2965L6.53663 17.196L5.82589 16.4925L5.11516 15.789L2.04638 18.8895L2.75711 19.593ZM5.34031 15.3509L5.34031 14.3509L1 14.3509L1 15.3509L1 16.3509L5.34031 16.3509V15.3509ZM1 10.4586L1 11.4586H5.23784V10.4586V9.45858H1L1 10.4586ZM16.2838 12.1855L15.3032 12.3817C15.5717 13.7235 14.7098 14.9765 13.3884 15.2045L13.5585 16.19L13.7286 17.1754C16.1726 16.7536 17.7509 14.4209 17.2643 11.9892L16.2838 12.1855ZM13.5585 16.19L13.3884 15.2045C12.0461 15.4362 10.719 14.5275 10.4465 13.1658L9.46597 13.3621L8.48541 13.5583C8.96804 15.9701 11.3055 17.5936 13.7286 17.1754L13.5585 16.19ZM9.46597 13.3621L10.4465 13.1658C10.178 11.8241 11.04 10.571 12.3613 10.343L12.1912 9.35757L12.0212 8.37214C9.57713 8.79393 7.9988 11.1267 8.48541 13.5583L9.46597 13.3621ZM12.1912 9.35757L12.3613 10.343C13.7036 10.1113 15.0307 11.02 15.3032 12.3817L16.2838 12.1855L17.2643 11.9892C16.7817 9.57745 14.4442 7.95397 12.0212 8.37214L12.1912 9.35757Z" fill="url(#paint0_linear_339_4448)"/>
<defs>
<linearGradient id="paint0_linear_339_4448" x1="12.9048" y1="1" x2="12.9048" y2="24.8095" gradientUnits="userSpaceOnUse">
<stop stop-color="#00BE9B"/>
<stop offset="1" stop-color="#1B4374"/>
</linearGradient>
</defs>
</svg>
